<svg width="100" height="100" viewBox="0 0 100 100" fill="none" xmlns="http://www.w3.org/2000/svg">
<g clip-path="url(#clip0_5149_4839)">
<path d="M100 0H0V100H100V0Z" fill="#231842"/>
<path d="M49.8047 64.4532C46.4084 64.4072 43.1368 63.1665 40.5641 60.9489C37.9913 58.7313 36.2818 55.6784 35.7355 52.326C35.1892 48.9736 35.841 45.536 37.5766 42.6163C39.3122 39.6966 42.0206 37.4814 45.2266 36.3595C46.6281 35.8579 47.8397 34.9342 48.6945 33.7156C49.5494 32.497 50.0055 31.0433 50 29.5548C50 24.5938 45.1055 21.0743 40.4297 22.7188C35.818 24.3389 31.6924 27.102 28.4387 30.7497C25.185 34.3974 22.9095 38.8106 21.8248 43.5767C20.7401 48.3428 20.8817 53.3061 22.2364 58.0026C23.5911 62.6991 26.1146 66.9753 29.5711 70.4316C33.0275 73.8878 37.3039 76.4111 42.0004 77.7656C46.697 79.12 51.6603 79.2614 56.4264 78.1764C61.1924 77.0915 65.6055 74.8157 69.253 71.5618C72.9006 68.3079 75.6634 64.1822 77.2832 59.5704C78.9258 54.8829 75.4063 50.0001 70.4473 50.0001C68.9579 49.9958 67.5038 50.4535 66.2854 51.3101C65.067 52.1668 64.1444 53.3803 63.6445 54.7833C62.6422 57.6423 60.7668 60.114 58.2834 61.8492C55.7999 63.5844 52.834 64.4953 49.8047 64.4532Z" fill="#FF5466"/>
<path d="M71.6797 35.5469C75.6708 35.5469 78.9062 32.3114 78.9062 28.3203C78.9062 24.3292 75.6708 21.0938 71.6797 21.0938C67.6886 21.0938 64.4531 24.3292 64.4531 28.3203C64.4531 32.3114 67.6886 35.5469 71.6797 35.5469Z" fill="#FF5466"/>
</g>
<defs>
<clipPath id="clip0_5149_4839">
<rect width="100" height="100" rx="20" fill="white"/>
</clipPath>
</defs>
</svg>
