<svg width="209" height="210" viewBox="0 0 209 210" fill="none" xmlns="http://www.w3.org/2000/svg">
<path d="M103.733 135.351C96.6596 135.255 89.8456 132.649 84.4871 127.992C79.1286 123.335 75.568 116.924 74.4302 109.884C73.2924 102.844 74.65 95.625 78.2648 89.4937C81.8797 83.3623 87.5207 78.7104 94.1981 76.3544C97.1172 75.3011 99.6406 73.3614 101.421 70.8023C103.202 68.2432 104.152 65.1905 104.14 62.0646C104.14 51.6466 93.9459 44.2556 84.2072 47.7091C74.6021 51.1112 66.0094 56.9136 59.2326 64.5738C52.4559 72.2339 47.7163 81.5017 45.4571 91.5105C43.198 101.519 43.493 111.942 46.3145 121.805C49.1361 131.668 54.392 140.648 61.591 147.906C68.79 155.164 77.6968 160.463 87.4787 163.307C97.2607 166.152 107.598 166.448 117.525 164.17C127.452 161.892 136.643 157.112 144.24 150.279C151.837 143.446 157.592 134.782 160.965 125.097C164.386 115.254 157.056 105 146.727 105C143.625 104.991 140.597 105.952 138.059 107.751C135.522 109.55 133.6 112.098 132.559 115.044C130.471 121.048 126.565 126.239 121.393 129.883C116.22 133.527 110.043 135.44 103.733 135.351Z" fill="#FF5466"/>
<path d="M149.294 74.6484C157.606 74.6484 164.345 67.854 164.345 59.4727C164.345 51.0913 157.606 44.2969 149.294 44.2969C140.981 44.2969 134.242 51.0913 134.242 59.4727C134.242 67.854 140.981 74.6484 149.294 74.6484Z" fill="#FF5466"/>
</svg>
