<svg width="65" height="14" viewBox="0 0 65 14" fill="none" xmlns="http://www.w3.org/2000/svg">
<g opacity="0.6">
<path d="M0 13.791V3.76119H1.50167V5.32836H1.6334C1.84416 4.79291 2.18445 4.37718 2.65427 4.08116C3.12409 3.78078 3.68832 3.6306 4.34695 3.6306C5.01436 3.6306 5.5698 3.78078 6.01327 4.08116C6.46114 4.37718 6.81021 4.79291 7.06049 5.32836H7.16587C7.42493 4.81032 7.81352 4.39894 8.33164 4.09422C8.84977 3.78514 9.47107 3.6306 10.1956 3.6306C11.1001 3.6306 11.8399 3.91138 12.4151 4.47295C12.9903 5.03016 13.2779 5.89863 13.2779 7.07836V13.791H11.7236V7.07836C11.7236 6.33831 11.5194 5.80939 11.1111 5.4916C10.7027 5.17382 10.2219 5.01493 9.66866 5.01493C8.95734 5.01493 8.40629 5.22823 8.0155 5.65485C7.62472 6.07711 7.42932 6.61256 7.42932 7.26119V13.791H5.84862V6.92164C5.84862 6.35137 5.66201 5.8921 5.28878 5.54384C4.91556 5.19123 4.43476 5.01493 3.84639 5.01493C3.44243 5.01493 3.06482 5.12158 2.71355 5.33489C2.36667 5.5482 2.08566 5.84422 1.8705 6.22295C1.65974 6.59733 1.55436 7.03047 1.55436 7.52239V13.791H0Z" fill="white"/>
<path d="M20.3615 14C19.3867 14 18.5459 13.7867 17.8389 13.3601C17.1364 12.9291 16.5941 12.3284 16.2121 11.5578C15.8345 10.783 15.6457 9.88184 15.6457 8.85448C15.6457 7.82711 15.8345 6.92164 16.2121 6.13806C16.5941 5.35012 17.1254 4.73632 17.806 4.29664C18.491 3.85261 19.2901 3.6306 20.2034 3.6306C20.7303 3.6306 21.2506 3.71766 21.7644 3.89179C22.2781 4.06592 22.7457 4.34888 23.1672 4.74067C23.5888 5.12811 23.9247 5.64179 24.1749 6.28172C24.4252 6.92164 24.5504 7.70958 24.5504 8.64552V9.29851H16.7522V7.96642H22.9697C22.9697 7.4005 22.8555 6.89552 22.6272 6.45149C22.4032 6.00746 22.0827 5.65703 21.6656 5.40019C21.2528 5.14335 20.7654 5.01493 20.2034 5.01493C19.5843 5.01493 19.0486 5.16729 18.5964 5.47201C18.1485 5.77239 17.8038 6.16418 17.5623 6.64739C17.3208 7.1306 17.2001 7.64863 17.2001 8.20149V9.08955C17.2001 9.84701 17.3318 10.4891 17.5952 11.0159C17.8631 11.5382 18.2341 11.9366 18.7083 12.2108C19.1825 12.4807 19.7336 12.6157 20.3615 12.6157C20.7698 12.6157 21.1387 12.5591 21.468 12.4459C21.8017 12.3284 22.0893 12.1542 22.3308 11.9235C22.5723 11.6884 22.7589 11.3968 22.8906 11.0485L24.3923 11.4664C24.2342 11.9714 23.9686 12.4154 23.5953 12.7985C23.2221 13.1772 22.7611 13.4733 22.2122 13.6866C21.6634 13.8955 21.0465 14 20.3615 14Z" fill="white"/>
<path d="M28.4692 7.75746V13.791H26.9148V3.76119H28.4165V5.32836H28.5482C28.7853 4.81903 29.1454 4.40983 29.6284 4.10075C30.1114 3.78731 30.7349 3.6306 31.4989 3.6306C32.1839 3.6306 32.7832 3.7699 33.2969 4.04851C33.8107 4.32276 34.2102 4.74067 34.4956 5.30224C34.781 5.85945 34.9238 6.56468 34.9238 7.41791V13.791H33.3694V7.52239C33.3694 6.73445 33.163 6.12065 32.7503 5.68097C32.3375 5.23694 31.7711 5.01493 31.051 5.01493C30.5549 5.01493 30.1114 5.12158 29.7206 5.33489C29.3342 5.5482 29.029 5.85945 28.8051 6.26866C28.5812 6.67786 28.4692 7.17413 28.4692 7.75746Z" fill="white"/>
<path d="M37.7641 13.791V3.76119H39.3184V13.791H37.7641ZM38.5544 2.08955C38.2515 2.08955 37.9902 1.98725 37.7707 1.78265C37.5555 1.57805 37.4479 1.33209 37.4479 1.04478C37.4479 0.757463 37.5555 0.511505 37.7707 0.306902C37.9902 0.102301 38.2515 0 38.5544 0C38.8574 0 39.1165 0.102301 39.3316 0.306902C39.5512 0.511505 39.6609 0.757463 39.6609 1.04478C39.6609 1.33209 39.5512 1.57805 39.3316 1.78265C39.1165 1.98725 38.8574 2.08955 38.5544 2.08955Z" fill="white"/>
<path d="M43.7197 7.75746V13.791H42.1654V3.76119H43.667V5.32836H43.7988C44.0359 4.81903 44.3959 4.40983 44.8789 4.10075C45.3619 3.78731 45.9854 3.6306 46.7494 3.6306C47.4344 3.6306 48.0337 3.7699 48.5475 4.04851C49.0612 4.32276 49.4608 4.74067 49.7462 5.30224C50.0316 5.85945 50.1743 6.56468 50.1743 7.41791V13.791H48.6199V7.52239C48.6199 6.73445 48.4136 6.12065 48.0008 5.68097C47.5881 5.23694 47.0216 5.01493 46.3015 5.01493C45.8054 5.01493 45.3619 5.12158 44.9711 5.33489C44.5847 5.5482 44.2796 5.85945 44.0556 6.26866C43.8317 6.67786 43.7197 7.17413 43.7197 7.75746Z" fill="white"/>
<path d="M54.4636 10.1343L54.4373 8.22761H54.7534L59.1794 3.76119H61.1026L56.3868 8.48881H56.2551L54.4636 10.1343ZM53.0146 13.791V0.41791H54.569V13.791H53.0146ZM59.4428 13.791L55.4911 8.82836L56.5975 7.75746L61.4187 13.791H59.4428Z" fill="white"/>
<path d="M63.1031 13.791V3.76119H64.6575V13.791H63.1031ZM63.8935 2.08955C63.5905 2.08955 63.3293 1.98725 63.1097 1.78265C62.8946 1.57805 62.787 1.33209 62.787 1.04478C62.787 0.757463 62.8946 0.511505 63.1097 0.306902C63.3293 0.102301 63.5905 0 63.8935 0C64.1965 0 64.4555 0.102301 64.6707 0.306902C64.8902 0.511505 65 0.757463 65 1.04478C65 1.33209 64.8902 1.57805 64.6707 1.78265C64.4555 1.98725 64.1965 2.08955 63.8935 2.08955Z" fill="white"/>
</g>
</svg>
