<svg width="16" height="16" viewBox="0 0 16 16" fill="none" xmlns="http://www.w3.org/2000/svg">
<path d="M4.31005 8.00504L6.56591 5.7493C6.85881 5.45641 6.85881 4.98153 6.56591 4.68864C6.29965 4.42237 5.88298 4.39817 5.58937 4.61602L5.50525 4.68864L1.96972 8.22417L1.90115 8.30297L1.86061 8.36234L1.81154 8.45661L1.77873 8.54841L1.76284 8.61622L1.75393 8.6781L1.75024 8.77172L1.75393 8.83091L1.76955 8.92486L1.79999 9.02413L1.84642 9.12268L1.88123 9.17837C1.90681 9.21576 1.93636 9.25148 1.96972 9.28484L1.90115 9.20604C1.92218 9.23388 1.9451 9.26021 1.96972 9.28484L5.50525 12.8204C5.79815 13.1133 6.27302 13.1133 6.56591 12.8204C6.83218 12.5541 6.85639 12.1374 6.63853 11.8438L6.56591 11.7597L4.31005 9.50504L8.00005 9.50451C11.6515 9.50451 14.1326 7.42787 14.246 4.46745L14.2501 4.25451C14.2501 3.84029 13.9143 3.50451 13.5001 3.50451C13.0858 3.50451 12.7501 3.84029 12.7501 4.25451C12.7501 6.38337 11.058 7.91239 8.25767 8.00049L8.00005 8.00451L4.31005 8.00504L6.56591 5.7493L4.31005 8.00504Z" fill="#7A4267"/>
</svg>
